<svg width="125px" height="84px" viewBox="0 0 125 84" version="1.1" xmlns="http://www.w3.org/2000/svg" xmlns:xlink="http://www.w3.org/1999/xlink">
    <!-- Generator: Sketch 52.5 (67469) - http://www.bohemiancoding.com/sketch -->
    <title>Shape</title>
    <desc>Created with Sketch.</desc>
    <defs>
        <linearGradient x1="-23.4615832%" y1="-5.70356324%" x2="41.8203119%" y2="78.3761584%" id="linearGradient-1">
            <stop stop-color="#0F6AFF" offset="0%"></stop>
            <stop stop-color="#9013FE" offset="100%"></stop>
        </linearGradient>
    </defs>
    <g id="Page-1" stroke="none" stroke-width="1" fill="none" fill-rule="evenodd">
        <g id="Login" transform="translate(-658.000000, -132.000000)" fill="url(#linearGradient-1)">
            <g id="elliot-logo-purple" transform="translate(658.000000, 131.000000)">
                <path d="M6.64123949,67.803373 C6.49970827,67.7467605 6.41478954,67.690148 6.3298708,67.6618417 C6.3298708,67.5203105 6.30156456,67.3787793 6.3298708,67.2655543 C6.41478954,66.7843482 6.52801451,66.303142 6.61293325,65.8502421 C6.64123949,65.7370171 6.64123949,65.6237922 6.64123949,65.5105672 C6.66954574,65.1991985 6.72615822,64.8878298 6.72615822,64.5481549 C6.72615822,64.2933987 6.72615822,64.0103362 6.64123949,63.75558 C6.49970827,63.3875989 6.47140202,63.0196177 6.47140202,62.6516365 C6.47140202,62.3119616 6.49970827,62.0005929 6.27325831,61.6892242 C6.21664583,61.6326117 6.24495207,61.434468 6.30156456,61.321243 C6.55632076,60.7834244 6.47140202,60.2172995 6.55632076,59.6794808 C6.584627,59.5662559 6.49970827,59.4530309 6.49970827,59.3398059 C6.49970827,59.1416622 6.52801451,58.9435185 6.584627,58.773681 C6.61293325,58.6038436 6.72615822,58.4340061 6.584627,58.2641686 C6.55632076,58.2075561 6.584627,58.0377187 6.64123949,57.9527999 C7.03752691,57.3583688 7.46212058,56.7922439 7.88671424,56.226119 C8.25469542,55.7166066 8.5660641,55.178788 8.5660641,54.5277444 C8.5660641,54.3862132 8.59437035,54.2163757 8.65098284,54.0748445 C8.84912655,53.5936383 9.0755765,53.1124322 9.27372021,52.6029198 C9.30202646,52.518001 9.35863894,52.4330823 9.38694519,52.3198573 C9.52847641,51.7254262 9.64170139,51.1593013 9.78323261,50.5648702 C9.8398451,50.310114 9.95307007,50.0553578 10.0379888,49.8006016 C10.1512138,49.4609267 10.2361325,49.149558 10.17952,48.7815768 C10.1512138,48.6400456 10.17952,48.4702081 10.2361325,48.3286769 C10.3493575,47.762552 10.4908887,47.1964271 10.6324199,46.6303022 C10.6607262,46.4604648 10.6890324,46.3472398 10.6041137,46.2057086 C10.519195,46.0358711 10.4908887,45.8377274 10.4625825,45.6395837 C10.3210513,45.1866838 10.17952,44.7337839 10.0662951,44.2808839 C9.89645759,43.6015341 9.72662012,42.9221842 9.61339514,42.2428344 C9.50017017,41.5351783 9.44355768,40.8275221 9.3303327,40.119866 C9.24541397,39.6386599 9.0755765,39.18576 8.96235152,38.7328601 C8.93404528,38.6196351 8.93404528,38.5064101 8.96235152,38.4214914 C9.04727026,37.9968977 9.01896401,37.6006103 8.70759532,37.2609354 C8.62267659,37.1760166 8.65098284,36.9778729 8.59437035,36.8080355 C8.28300166,36.6665042 8.25469542,36.2985231 8.16977668,35.9588481 C8.11316419,35.6757857 7.99993922,35.4210295 7.858408,35.1662733 C7.68857053,34.8832108 7.63195804,34.5435359 7.57534555,34.203861 C7.51873306,33.864186 7.46212058,33.5245111 7.29228311,33.2131424 C7.0941394,32.8734675 7.03752691,32.4771801 7.00922067,32.0808927 C6.98091442,31.6279927 6.89599569,31.2033991 6.8393832,30.7504992 C6.8393832,30.6655804 6.78277071,30.608968 6.72615822,30.5240492 C6.52801451,30.2975993 6.47140202,30.0145368 6.52801451,29.7314744 C6.584627,29.4767182 6.52801451,29.2785745 6.38648329,29.108737 C6.24495207,28.9388995 6.21664583,28.7407558 6.24495207,28.5143059 C6.27325831,28.3727747 6.27325831,28.2029372 6.24495207,28.061406 C6.21664583,27.5801998 6.16003334,27.0989937 6.13172709,26.5894813 C5.96188963,26.6744 5.93358338,26.8442375 5.90527714,26.9857687 C5.76374592,27.8915685 5.48068347,28.7407558 5.53729596,29.6748619 C5.53729596,29.7031681 5.50898972,29.7597806 5.53729596,29.7880869 C5.70713343,30.8071117 5.50898972,31.8544427 5.39576474,32.8451613 C5.28253976,33.864186 5.33915225,34.8549046 5.28253976,35.8456231 C5.28253976,36.0437669 5.25423352,36.2419106 5.25423352,36.4400543 C5.25423352,37.3175479 5.25423352,38.1667352 5.25423352,39.0442288 C5.25423352,39.5254349 5.22592728,39.9783348 5.22592728,40.459541 C5.22592728,40.7142972 5.22592728,40.9973596 5.25423352,41.2521158 C5.3674585,42.1013031 5.42407099,42.9504905 5.39576474,43.7996778 C5.39576474,43.8845965 5.3674585,43.9978215 5.33915225,44.0827402 C5.28253976,44.2525777 5.19762103,44.3941089 5.33915225,44.5356401 C5.3674585,44.5639464 5.3674585,44.6205589 5.3674585,44.6488651 C5.22592728,45.21499 5.45237723,45.7811149 5.45237723,46.3472398 C5.45237723,47.2247334 5.42407099,48.1022269 5.42407099,48.9797205 C5.42407099,49.4609267 5.45237723,49.9421328 5.53729596,50.3950327 C5.67882718,51.1593013 5.6222147,51.9235699 5.65052094,52.6878385 C5.65052094,53.0275134 5.70713343,53.3671884 5.70713343,53.7351695 C5.70713343,54.1880695 5.67882718,54.6126631 5.65052094,55.065563 C5.6222147,55.3486255 5.6222147,55.6599942 5.76374592,55.9147504 C5.82035841,56.0279753 5.82035841,56.1695066 5.82035841,56.2827315 C5.82035841,57.0470001 5.84866465,57.8112687 5.84866465,58.5755373 C5.84866465,59.8210121 5.84866465,61.0381806 5.50898972,62.2553491 C5.45237723,62.4534928 5.48068347,62.6516365 5.45237723,62.8497802 C5.33915225,63.6706613 5.08439605,64.4349299 4.80133361,65.2275047 C4.74472112,65.3407297 4.68810863,65.4539547 4.68810863,65.5954859 C4.6031899,66.303142 4.29182121,66.9541856 4.0936775,67.6335355 C3.98045253,67.9732104 3.92384004,68.3411916 3.92384004,68.7091728 C3.92384004,69.1337664 3.86722755,69.5583601 3.86722755,70.01126 C3.86722755,70.1527912 3.89553379,70.2943225 3.92384004,70.4358537 C3.95214628,70.6906099 3.8389213,70.7755286 3.58416511,70.6623036 C3.49924637,70.6339974 3.41432764,70.5773849 3.32940891,70.5773849 C2.96142773,70.6339974 2.79159027,70.4075474 2.65005904,70.1527912 C2.50852782,69.8697288 2.3669966,69.6149726 2.22546538,69.3319102 C2.02732167,68.8790102 1.97070918,68.4261103 2.02732167,67.9449042 C2.05562791,67.7467605 2.02732167,67.5486168 2.02732167,67.3221668 C1.99901542,66.8126544 1.99901542,66.3314483 1.94240294,65.8219359 C1.94240294,65.6804046 1.88579045,65.4822609 1.77256547,65.369036 C1.26305307,64.7462986 1.03660312,64.0386425 0.895071897,63.2743739 C0.668621943,62.1421241 0.78184692,61.0098743 0.810153164,59.8776246 C0.810153164,59.1699685 1.00829687,58.4623123 1.20644058,57.7829625 C1.37627805,57.2451438 1.48950303,56.679019 1.68764674,56.1412003 C1.91409669,55.5467692 2.14054665,54.9523381 2.50852782,54.4145194 C2.6217528,54.2729882 2.67836529,54.1031507 2.73497778,53.9333133 C2.81989651,53.7068633 2.876509,53.4521071 2.96142773,53.2256571 C2.98973398,53.1690447 3.01804022,53.1124322 2.98973398,53.0558197 C2.876509,52.6595323 3.04634646,52.2632448 3.10295895,51.8952637 C3.30110266,50.9045451 3.18787769,49.8855203 3.21618393,48.8948018 C3.24449017,48.4135956 3.27279642,47.9323895 3.21618393,47.4794896 C3.04634646,45.9226461 3.18787769,44.3658027 3.1312652,42.8372655 C3.10295895,41.7616282 3.04634646,40.6859909 2.96142773,39.6103536 C2.90481524,38.6762476 2.876509,37.7421415 2.876509,36.8080355 C2.876509,36.2985231 2.76328402,35.8173169 2.70667153,35.3078045 C2.65005904,34.7982921 2.6217528,34.2887797 2.59344656,33.7509611 C2.56514031,33.4112861 2.53683407,33.0716112 2.53683407,32.70363 C2.50852782,32.0808927 2.50852782,31.4581553 2.50852782,30.8071117 C2.50852782,30.0145368 2.56514031,29.2502682 2.59344656,28.4576934 C2.59344656,28.2312434 2.56514031,27.9764872 2.53683407,27.7500373 C2.53683407,27.6368123 2.50852782,27.4952811 2.50852782,27.3820561 C2.59344656,26.6177875 2.6217528,25.8535189 2.79159027,25.0892503 C2.90481524,24.5797379 2.81989651,24.0702255 2.96142773,23.5607131 C2.98973398,23.4757944 2.876509,23.3342632 2.81989651,23.2210382 C2.67836529,22.966282 2.65005904,22.9096695 2.90481524,22.739832 C3.15957144,22.5416883 3.32940891,22.3435446 3.44263388,22.0321759 C3.52755262,21.7491135 3.72569633,21.5226635 3.86722755,21.2679073 C4.00875877,20.9848449 4.12198375,20.7300887 4.03706501,20.3904138 C3.98045253,20.2488825 4.03706501,20.1073513 4.17859624,20.0224326 C4.29182121,19.9658201 4.40504619,19.8809014 4.48996492,19.8242889 C4.65980239,19.7110639 4.82963986,19.5978389 4.77302737,19.3147765 C4.74472112,19.144939 4.82963986,18.9467953 4.99947732,18.8052641 C5.1127023,18.7203453 5.22592728,18.6354266 5.33915225,18.5788141 C5.22592728,18.3806704 5.16931479,18.2391392 5.08439605,18.0409955 C5.31084601,17.9277705 5.50898972,17.757933 5.73543967,17.6730143 C6.16003334,17.5031768 6.52801451,17.2767269 6.69785198,16.823827 C6.75446447,16.6539895 6.92430193,16.5124583 7.03752691,16.3426208 C6.92430193,16.0029459 6.95260818,15.9463334 7.29228311,15.8048022 C7.63195804,15.663271 7.97163297,15.5217397 8.28300166,15.3802085 C8.65098284,15.1820648 8.84912655,14.8706961 8.96235152,14.4744087 C9.0755765,14.0781213 9.13218899,14.049815 9.44355768,14.276265 C9.69831388,14.4461025 10.0096826,14.4177962 10.2361325,14.1913463 C10.292745,14.1347338 10.3493575,14.049815 10.3493575,14.0215088 C10.6041137,13.9932025 10.8022574,13.9932025 11.0004011,13.9648963 C11.5099135,13.9082838 12.0194259,13.8516713 12.5289383,13.7667526 C12.6987758,13.7384463 12.840307,13.7101401 13.0101445,13.6252214 C13.2649007,13.5119964 13.5196569,13.4836901 13.7744131,13.5969151 C13.9159443,13.6535276 14.0574755,13.6818339 14.227313,13.6818339 C15.274644,13.7101401 16.321975,13.7384463 17.3693061,13.7667526 C18.0769622,13.7950588 18.7563121,13.8233651 19.4639682,13.8233651 C20.2848492,13.8233651 21.1340366,13.7384463 21.9549177,13.7384463 C23.3985361,13.7384463 24.8138483,13.5969151 26.2574668,13.6818339 C26.8802042,13.7384463 27.5312478,13.6252214 28.1822914,13.5686089 C29.1163975,13.5119964 30.0505035,13.4553839 30.9563033,13.3987714 C31.2393658,13.3704652 31.494122,13.3138527 31.7771844,13.2855464 C31.9470219,13.2572402 32.1168594,13.2855464 32.2583906,13.2855464 C32.3999218,13.2855464 32.5131468,13.3421589 32.654678,13.1723215 C32.7112905,13.0874027 32.9660467,13.115709 33.1358842,13.115709 C33.2208029,13.2572402 33.1358842,13.4270777 33.3623341,13.4553839 C34.0133777,13.5403026 34.6361151,13.7667526 35.2871587,13.8233651 C36.3061835,13.9082838 37.3252083,14.0781213 38.3442331,14.1347338 C39.3632579,14.2196525 40.4105889,14.2196525 41.4296137,14.2479587 C41.9108199,14.276265 42.392026,14.1913463 42.844926,14.3328775 C43.4676633,14.5027149 44.0620945,14.4744087 44.6565256,14.4177962 C45.4774067,14.3611837 46.2982878,14.3611837 47.1191688,14.3045712 C47.9400499,14.2479587 48.760931,14.16304 49.5818121,14.0781213 C49.7799558,14.0781213 49.9497933,14.1347338 50.147937,14.16304 C50.261162,14.1913463 50.4026932,14.2196525 50.5159182,14.2196525 C51.5632492,14.1347338 52.6105802,14.049815 53.629605,13.9932025 C54.1674237,13.9648963 54.7052423,13.9932025 55.243061,13.9648963 C55.6110421,13.9365901 56.0073296,13.9082838 56.3753107,13.8516713 C57.337723,13.7101401 58.3284416,13.7950588 59.2908539,13.7667526 C59.885285,13.7384463 60.4797162,13.7950588 61.0741473,13.7950588 C61.1873723,13.7950588 61.3005972,13.7950588 61.4138222,13.7667526 C62.4894595,13.5119964 63.593403,13.3987714 64.7256528,13.2855464 C65.206859,13.2289339 65.6597589,13.0874027 66.1126588,13.002484 C66.8769274,12.889259 67.6695022,12.8043403 68.4337708,12.6911153 C69.3395706,12.5778903 70.2736767,12.6345028 71.1794765,12.6061966 C71.6323764,12.6061966 72.0569701,12.7194216 72.50987,12.7477278 C72.8495449,12.776034 73.1892198,12.7477278 73.557201,12.7477278 C73.8119572,12.7477278 74.0950197,12.8043403 74.3497759,12.7477278 C74.7460633,12.6911153 75.1423507,12.8326465 75.5386381,12.8609528 C75.9349255,12.8609528 76.3029067,12.9458715 76.6991941,12.9741777 C77.2370128,13.0307902 77.7748314,13.0590965 78.3126501,13.0874027 C78.8504687,13.115709 79.3599811,13.0874027 79.8977997,13.115709 C80.039331,13.115709 80.2091684,13.1440152 80.3790059,13.1723215 C80.7752933,12.8043403 81.2281932,12.4929716 81.7943181,12.4080529 C82.1056868,12.3514404 82.3887492,12.2382154 82.6718117,12.1249904 C83.2662428,11.8985405 83.8889802,11.728703 84.4834113,11.5305593 C84.5966363,11.502253 84.681555,11.4456406 84.79478,11.4173343 C85.5024361,11.1625781 86.2100922,10.8795157 86.9177483,10.6247595 C87.0875858,10.568147 87.2857295,10.5115345 87.455567,10.454922 C87.5121795,10.4266158 87.568792,10.3983095 87.5970982,10.3983095 C88.1349168,10.2284721 88.6727355,10.0586346 89.2388604,9.88879712 C89.5502291,9.77557214 89.8615977,9.69065341 90.2012727,9.57742843 C90.8806225,9.37928472 91.5316662,9.20944726 92.211016,9.01130355 C92.2676285,8.9829973 92.3525472,8.9829973 92.4091597,8.95469106 C92.8337534,8.7282411 93.3149595,8.69993486 93.7961657,8.61501613 C94.1924531,8.55840364 94.6170468,8.41687242 94.9567217,8.19042246 C95.8342153,7.68091006 96.6834026,7.11478518 97.5608962,6.57696654 C97.6741212,6.52035405 97.7590399,6.40712907 97.8722649,6.37882283 C98.5233085,6.15237287 98.9479022,5.67116672 99.3724958,5.16165432 C99.1460459,4.85028563 99.0045147,4.5106107 99.1177396,4.14262953 C99.1460459,4.02940455 99.1743521,3.88787333 99.2592709,3.80295459 C99.5423333,3.49158591 99.8253957,3.15191098 100.136764,2.92546102 C100.674583,2.55747985 101.269014,2.47256111 101.920058,2.64239858 C102.089895,2.69901107 102.288039,2.67070482 102.486183,2.69901107 C102.486183,2.67070482 102.514489,2.64239858 102.514489,2.58578609 C102.372958,2.50086736 102.259733,2.38764238 102.061589,2.24611116 C102.42957,2.0196612 102.769245,2.13288618 103.10892,2.18949867 C103.080614,2.10457994 103.080614,2.04796745 103.052308,1.99135496 C103.024001,1.79321125 103.10892,1.70829252 103.278758,1.76490501 C103.505207,1.84982374 103.646739,1.76490501 103.703351,1.51014881 C103.844882,1.56676129 103.986414,1.62337378 104.099639,1.65168003 C104.269476,1.34031134 104.354395,1.34031134 104.637457,1.73659876 C104.665764,1.62337378 104.69407,1.51014881 104.750682,1.42523007 C104.863907,1.19878012 105.033745,1.17047387 105.231888,1.34031134 C105.345113,1.45353632 105.458338,1.56676129 105.571563,1.67998627 C105.59987,1.67998627 105.628176,1.65168003 105.656482,1.65168003 C105.656482,1.53845505 105.59987,1.45353632 105.628176,1.36861758 C105.656482,1.28369885 105.769707,1.22708636 105.882932,1.11386139 C105.996157,1.34031134 106.081076,1.48184256 106.165994,1.67998627 C106.222607,1.56676129 106.279219,1.48184256 106.335832,1.39692383 C106.477363,1.19878012 106.562282,1.17047387 106.732119,1.36861758 C106.817038,1.45353632 106.873651,1.53845505 106.958569,1.65168003 C107.043488,1.51014881 107.128407,1.39692383 107.185019,1.3120051 C107.637919,1.39692383 107.269938,1.93474247 107.666225,2.0196612 C107.694532,1.99135496 107.722838,1.96304872 107.722838,1.96304872 C107.694532,1.84982374 107.553,1.73659876 107.722838,1.62337378 C107.864369,1.53845505 107.977594,1.62337378 108.062513,1.73659876 C108.23235,1.90643623 108.373882,1.90643623 108.600331,1.87812998 C109.307988,1.82151749 110.015644,1.84982374 110.7233,1.87812998 C111.232812,1.90643623 111.714018,1.96304872 112.223531,1.99135496 C112.449981,2.0196612 112.704737,2.04796745 112.931187,2.10457994 C113.242556,2.18949867 113.525618,2.24611116 113.836987,2.24611116 C114.03513,2.24611116 114.204968,2.33102989 114.403112,2.38764238 C114.516337,2.41594862 114.601255,2.47256111 114.71448,2.50086736 C115.365524,2.61409233 115.84673,2.98207351 116.356242,3.37836093 C116.469467,3.46327966 116.582692,3.5481984 116.695917,3.60481088 C117.035592,3.74634211 117.262042,4.00109831 117.375267,4.34077324 C117.460186,4.53891695 117.545105,4.68044817 117.799861,4.68044817 C118.394292,4.65214192 118.960417,4.82197939 119.469929,5.07673559 C119.979442,5.33149179 120.488954,5.67116672 120.941854,6.06745414 C120.97016,6.09576038 120.998466,6.12406663 121.026773,6.18067912 C120.51726,7.17139767 119.752992,7.93566626 118.790579,8.50179115 C117.828167,9.09622228 116.75253,9.26605975 115.591974,9.26605975 C115.676893,9.83218463 115.733505,10.3700033 115.875036,10.8795157 C115.959955,11.2191906 116.214711,11.502253 116.412855,11.8136217 C116.837449,12.5212778 117.262042,13.2289339 117.686636,13.9365901 C117.771555,14.0781213 117.88478,14.1913463 117.998005,14.3328775 C118.394292,14.8140836 118.705661,15.3519023 119.158561,15.7481897 C119.639767,16.1727834 119.894523,16.7955207 120.432342,17.1635019 C120.51726,17.2201144 120.573873,17.3050331 120.602179,17.3899519 C120.658792,17.5597893 120.800323,17.6447081 120.97016,17.757933 C121.19661,17.8994643 121.394754,18.1259142 121.592898,18.3240579 C122.017491,18.7203453 122.527004,18.9751015 123.036516,19.2298577 C123.319579,19.371389 123.602641,19.5412264 123.800785,19.7959826 C123.857397,19.8809014 123.970622,19.9375138 124.055541,19.9941263 C124.395216,20.2771888 124.565053,20.64517 124.508441,21.0980699 C124.480135,21.4377448 124.423522,21.7774197 124.395216,22.1454009 C124.395216,22.1737071 124.395216,22.2020134 124.395216,22.2303196 C123.885703,22.6832195 124.083847,23.3908757 123.829091,23.9286943 C123.659253,24.3249817 123.46111,24.6363504 123.121435,24.9194128 C122.753454,25.2024753 122.413779,25.400619 121.932573,25.4572315 C121.819348,25.4572315 121.706123,25.5421502 121.621204,25.5987627 C121.366448,25.7969064 121.083385,25.8252127 120.772017,25.7686002 C119.979442,25.6553752 119.158561,25.5987627 118.365986,25.4289252 C117.714942,25.287394 117.092205,25.0609441 116.441161,24.8628004 C116.356242,24.8344941 116.243017,24.7778816 116.158099,24.7778816 C115.761811,24.8344941 115.39383,24.7495754 114.997543,24.7212691 C114.459724,24.6929629 113.893599,24.6646566 113.355781,24.5231254 C113.016106,24.4382067 112.676431,24.4382067 112.308449,24.4382067 C111.827243,24.4382067 111.374343,24.4665129 110.893137,24.4948192 C110.525156,24.5231254 110.157175,24.5514317 109.8175,24.5514317 C109.13815,24.5797379 108.4588,24.5231254 107.77945,24.5797379 C107.354857,24.6363504 106.958569,24.5231254 106.562282,24.4099004 C106.335832,24.353288 106.109382,24.3249817 105.854626,24.2966755 C105.345113,24.240063 104.977132,24.3249817 104.46762,24.3815942 C104.071332,24.4382067 103.646739,24.5514317 103.250451,24.5231254 C102.740939,24.4948192 102.401264,24.7212691 102.146508,25.0892503 C101.75022,25.6553752 101.325627,26.2498063 100.957646,26.8442375 C100.391521,27.721731 99.966927,28.6841433 99.3158833,29.5050244 C99.1460459,29.7314744 99.0611271,30.0428431 98.8912897,30.269293 C98.6648397,30.6372742 98.353471,30.9486429 98.1270211,31.3166241 C97.5325899,32.1941176 96.9098526,33.0716112 96.3154214,33.9491048 C96.2021965,34.1189422 96.0889715,34.317086 95.8342153,34.4020047 C95.7492966,34.4303109 95.6926841,34.5152297 95.6360716,34.6001484 C95.0416405,35.4493357 94.4755156,36.3268293 93.8244719,37.1477104 C93.5131033,37.5439978 93.2583471,37.9402852 93.0318971,38.3648789 C92.7488347,38.95931 92.550691,39.5820474 92.2959348,40.1764785 C92.2676285,40.2613973 92.2393223,40.346316 92.211016,40.4029285 C91.9279536,40.7709097 91.7581161,41.1671971 91.5882786,41.5917907 C91.5033599,41.7899345 91.4184412,41.9880782 91.3618287,42.2145281 C91.2486037,42.9787967 90.9655413,43.6581466 90.6824788,44.3658027 C90.6258663,44.5073339 90.4843351,44.5922526 90.4277226,44.7337839 C90.3144977,44.9602338 90.2295789,45.21499 90.1163539,45.4697462 C89.9182102,45.9226461 89.7483728,46.375546 89.5502291,46.8284459 C89.4370041,47.0832021 89.2954729,47.3379583 89.1822479,47.5927145 C88.9557979,48.0739207 88.616123,48.4419019 88.2764481,48.8381893 C88.0783044,49.0929455 87.8801606,49.3477017 87.6820169,49.6024579 C87.115892,50.2818077 86.5214609,50.9611576 85.955336,51.6405075 C85.8704173,51.7537324 85.8138048,51.8669574 85.7571923,52.0084886 C85.7288861,52.0651011 85.7288861,52.1217136 85.7005798,52.1500199 C85.3325987,52.7161448 85.02123,53.3105759 84.5400238,53.791782 C84.1437364,54.1880695 83.6625302,54.5843569 83.0397929,54.7541943 C82.9548741,54.7825006 82.8416492,54.8108068 82.7850367,54.8674193 C82.3038305,55.2354005 81.7943181,55.292013 81.2281932,55.0938693 C81.1715807,55.065563 81.1149683,55.065563 81.0583558,55.065563 C81.0017433,55.178788 80.9168245,55.2637067 80.8602121,55.3769317 C80.6337621,55.8581379 80.3790059,56.3110378 80.1525559,56.7922439 C80.0676372,56.9337752 80.0110247,57.1036126 79.9827185,57.2734501 C79.8694935,57.9244937 79.5864311,58.5189248 79.3599811,59.1416622 C79.1052249,59.8210121 78.9070812,60.5569744 78.9919999,61.2929368 C78.9919999,61.3495493 79.0203062,61.434468 78.9919999,61.4910805 C78.76555,62.0855116 78.8221625,62.7365552 78.7089375,63.3309864 C78.6240188,63.8404988 78.5391,64.3783174 78.425875,64.8878298 C78.3126501,65.5105672 77.9163626,65.9917733 77.604994,66.529592 C77.5766877,66.5862045 77.4351565,66.6145107 77.4068502,66.6428169 C77.4634627,67.1240231 77.5483815,67.6052293 77.5200752,68.0864354 C77.491769,68.9073165 77.4351565,69.7281976 77.378544,70.5490787 C77.378544,70.5773849 77.378544,70.6056912 77.378544,70.6339974 C77.604994,71.4265722 77.378544,72.2191471 77.4634627,73.0117219 C77.5200752,73.6627655 77.604994,74.3138092 77.6333002,74.9648528 C77.6899127,75.9272651 78.0578939,76.8047587 78.2560376,77.7388647 C78.3692626,78.3332958 78.7372437,78.7578895 79.3316749,78.9843395 C80.0110247,79.2390957 80.6337621,79.6070768 81.1432745,80.1448955 C81.1715807,80.1732017 81.199887,80.201508 81.2564995,80.2298142 C81.7660119,80.3430392 81.9641556,80.8242453 82.3321368,81.1073078 C82.7001179,81.3903702 82.9265679,81.8149639 83.1530178,82.2112513 C83.2945491,82.4660075 83.3794678,82.7207637 83.2096303,83.0038262 C83.1247116,82.9755199 83.0680991,82.9472137 82.9831804,82.9472137 C82.8982616,83.0887449 82.9831804,83.4001136 82.6435054,83.2868886 C82.6151992,83.2868886 82.5302805,83.3718073 82.5302805,83.4284198 C82.473668,83.6265635 82.3038305,83.7114823 82.133993,83.7680948 C81.7943181,83.8813197 81.4546432,84.022851 81.086662,83.8530135 C81.0583558,83.8530135 81.0017433,83.8530135 80.973437,83.8530135 C80.2657809,84.0511572 79.6147373,83.8530135 78.9353874,83.7680948 C78.5391,83.7114823 78.1428126,83.683176 77.7748314,83.6265635 C77.4351565,83.5416448 77.1237878,83.4284198 76.7841129,83.3151948 C76.5576629,83.2302761 76.4444379,83.0604386 76.4444379,82.8339887 C76.4161317,82.409395 76.1613755,82.2112513 75.8217006,82.0980263 C75.5669444,82.0131076 75.2838819,81.9848014 75.0008195,81.9848014 C74.2648571,81.9848014 73.5288948,81.9564951 72.8212387,81.7017389 C72.6514012,81.6451264 72.4249513,81.6168202 72.2551138,81.6451264 C71.8305201,81.6734327 71.3776202,81.6734327 70.9813328,81.5319015 C70.8964141,81.5035952 70.8114953,81.5035952 70.7265766,81.475289 C70.3019829,81.4186765 69.8773893,81.362064 69.4244894,81.3054515 C69.4244894,81.0790015 69.4244894,80.9091641 69.4244894,80.7110204 C69.5094081,80.7393266 69.5943268,80.7676329 69.7075518,80.7959391 C69.6792456,80.3996517 69.5094081,80.1165892 69.3678769,79.8052205 C69.1980394,79.4372394 69.0282019,79.0692582 68.9998957,78.6729708 C68.9998957,78.4182146 68.8300582,78.2483771 68.6602208,78.2483771 C68.2073209,78.2200709 68.1507084,77.9370084 68.1224021,77.5973335 C68.1224021,77.5973335 68.0940959,77.5690272 68.0940959,77.540721 C67.8110334,77.5973335 67.9525647,77.8520897 67.8959522,77.9936209 C67.7827272,78.0502334 67.6695022,78.1351521 67.527971,78.1634584 C67.414746,78.1917646 67.2732148,78.1634584 67.1316836,78.1351521 C67.0184586,78.1068459 66.9052336,78.0502334 66.7920086,78.0219272 C66.5089462,77.9653147 66.4523337,77.9370084 66.4523337,77.653946 C66.4240275,77.2293523 66.4806399,76.8330649 66.6787837,76.4084712 C66.9618461,75.7291214 67.1882961,75.0214653 67.301521,74.2855029 C67.3864398,73.5778468 67.4996647,72.8701907 67.6128897,72.1908408 C67.6128897,72.1059221 67.6695022,72.0210034 67.6978085,71.9077784 C67.7544209,71.6247159 67.8110334,71.3699597 67.8393397,71.0868973 C67.8959522,70.8321411 67.9242584,70.5773849 67.9525647,70.2943225 C68.0091771,69.3319102 68.0657896,68.3411916 68.1507084,67.3787793 C68.2073209,66.8126544 68.1224021,66.2465295 68.0940959,65.6804046 C68.0657896,65.3407297 68.0091771,65.029361 67.9808709,64.6896861 C67.9525647,64.3217049 67.8110334,64.0103362 67.641196,63.7272738 C67.3581335,63.3309864 67.3864398,62.8780865 67.414746,62.4534928 C67.4996647,61.5759992 67.4996647,60.6985056 67.3298273,59.8210121 C67.301521,59.7360933 67.301521,59.6511746 67.3298273,59.5662559 C67.527971,58.8585998 67.4713585,58.1509437 67.4430523,57.4432875 C67.414746,56.9620814 67.3864398,56.4808752 67.3864398,55.9713628 C67.3864398,55.6599942 67.3864398,55.3486255 67.414746,55.065563 C67.4430523,54.8391131 67.3864398,54.6692756 67.2732148,54.4711319 C67.1882961,54.3579069 67.1033773,54.2163757 67.0467648,54.0748445 C66.8486211,53.5936383 66.6504774,53.1124322 66.4523337,52.6029198 C65.9428213,52.6878385 65.3766964,52.744451 64.8388778,52.8293697 C64.2727529,52.9142885 63.706628,52.9992072 63.1405031,53.1124322 C62.9989719,53.1407384 62.8574407,53.1973509 62.7159095,53.2256571 C62.4045408,53.2822696 62.1214783,53.3388821 61.8101096,53.3671884 C61.6685784,53.3954946 61.5270472,53.3671884 61.385516,53.3671884 C61.3572097,53.4804133 61.3005972,53.5653321 61.272291,53.6785571 C60.7061661,53.4238009 60.2815724,53.791782 59.8286725,53.9616195 C59.3191601,54.131457 58.837954,54.3579069 58.3284416,54.5843569 C58.1869104,54.6409694 58.0170729,54.7258881 57.8755417,54.8108068 C57.7057042,54.9240318 57.564173,54.9806443 57.3660293,54.9523381 C57.2528043,54.9240318 57.1395793,54.9523381 57.0263544,55.0089505 C56.4602295,55.3203192 55.8091858,55.3203192 55.243061,55.5750754 C55.016611,55.6883004 54.6769361,55.6599942 54.4221799,55.6316879 C53.8843612,55.5750754 53.3465426,55.5184629 52.8087239,55.6316879 C52.3275178,55.7449129 51.8180054,55.7449129 51.308493,55.8015254 C50.9688181,55.8581379 50.6291431,55.9996691 50.2894682,56.0845878 C50.1762432,56.1128941 50.0064058,56.1695066 49.921487,56.1128941 C49.6384246,55.9713628 49.3553621,56.0562816 49.0722997,56.1128941 C48.9590747,56.1412003 48.8175435,56.1695066 48.7326248,56.1128941 C48.3929498,55.9430566 48.0532749,56.0845878 47.7136,56.1412003 C47.600375,56.1695066 47.4588438,56.1978128 47.3456188,56.226119 C47.1757813,56.2827315 46.9776376,56.2827315 46.8361064,56.3676503 C46.6662689,56.5091815 46.5247377,56.5091815 46.3549002,56.3959565 C46.1850628,56.2827315 45.9869191,56.2544253 45.8170816,56.3959565 C45.6472441,56.5091815 45.4774067,56.4808752 45.3075692,56.4242628 C44.7414443,56.1978128 44.1470132,55.9996691 43.5525821,55.8015254 C43.3827446,55.7449129 43.2129071,55.7166066 42.9864572,55.7449129 C42.7600072,55.7732191 42.505251,55.6316879 42.2788011,55.5467692 C42.1089636,55.4901567 41.9391261,55.405238 41.7975949,55.292013 C41.2597763,54.8674193 40.5804264,54.7258881 39.9859953,54.4428257 C39.3349517,54.131457 38.5989893,54.0465382 37.9196394,53.8200883 C37.749802,53.7634758 37.5516583,53.7634758 37.3818208,53.791782 C37.1553708,53.8483945 36.9289209,53.8200883 36.7307772,53.7351695 C36.5043272,53.6502508 36.3061835,53.7068633 36.1363461,53.905007 C35.6551399,54.4428257 35.1739337,54.9523381 34.6644214,55.4618504 C34.4096652,55.7166066 34.1266027,55.9430566 33.8435403,56.1978128 C33.3340279,56.6507127 32.8528217,57.0753064 32.3150031,57.4999 C31.9470219,57.8112687 31.5507345,58.0943312 31.1261408,58.3773936 C30.8996909,58.5189248 30.6449347,58.6604561 30.3618722,58.7170685 C30.0221973,58.8019873 29.7391348,58.9718247 29.5692974,59.2548872 C29.3145412,59.6228684 29.0031725,59.9908495 28.9748662,60.4720557 C28.9182538,61.1514056 28.7484163,61.8307554 28.5502726,62.481799 C28.5219663,62.5101053 28.4936601,62.5384115 28.4653538,62.5384115 C27.8143102,62.6799427 27.9275352,62.7648615 27.5312478,62.0572054 C27.3331041,61.6892242 27.1349604,61.2929368 27.0500416,60.8683431 C27.0500416,60.8117306 26.9934291,60.7551181 26.9368167,60.6701994 C26.8518979,60.8117306 26.7669792,60.8966494 26.7103667,61.0098743 C26.4839167,61.321243 26.1442418,61.3495493 25.9177919,61.0381806 C25.6347294,60.6418932 25.464892,60.2172995 25.351667,59.7360933 C25.3233607,59.6511746 25.3233607,59.5662559 25.2950545,59.4813371 C24.7006234,59.5379496 24.1061922,59.6228684 23.4834549,59.6794808 C23.4834549,59.8776246 23.4551486,60.0191558 23.4834549,60.1889932 C23.5966798,61.1230993 23.738211,62.0572054 23.851436,62.9913114 C23.9363548,63.5574363 23.9363548,64.095255 24.0495797,64.6613798 C24.1628047,65.255811 24.3609484,65.8219359 24.5307859,66.3880607 C24.7289296,66.9824919 24.9553796,67.576923 25.1535233,68.1996604 C25.2667482,68.5393353 25.3233607,68.9073165 25.3799732,69.2752977 C25.4931982,70.0678725 25.6630357,70.8604473 25.9460981,71.6247159 C26.0310168,71.8228597 26.0310168,72.0210034 26.0593231,72.2474533 C26.0876293,72.4739033 26.1442418,72.672047 26.398998,72.8135782 C26.1725481,73.1249469 26.285773,73.4080093 26.4556105,73.6344593 C26.8802042,74.2005842 27.3331041,74.7100966 27.7576977,75.2479152 C27.8143102,75.3045277 27.8709227,75.3611402 27.9558415,75.4177527 C28.4370476,75.6725089 28.9182538,75.9272651 29.3711537,76.1820213 C29.5409911,76.2952463 29.6825224,76.4367775 29.8523598,76.5783087 C29.9372786,76.6349212 30.0221973,76.7198399 30.107116,76.7764524 C30.1637285,76.8047587 30.2769535,76.8330649 30.2769535,76.8896774 C30.3618722,77.3425773 30.8430784,77.4558023 31.0412221,77.8237834 C31.1827533,78.0785396 31.4092033,78.3049896 31.6639595,78.5031333 C32.0885531,78.8428082 32.2300843,79.2957082 32.2866968,79.8335268 C32.2583906,79.8335268 32.2300843,79.861833 32.2017781,79.861833 C32.1734719,79.861833 32.1451656,79.861833 32.1168594,79.861833 C32.1168594,80.1732017 32.0885531,80.1732017 31.8054907,80.201508 C31.0412221,80.2581205 30.2769535,80.3430392 29.5126849,80.3996517 C29.2579287,80.4279579 29.0031725,80.4279579 28.7484163,80.3713454 C28.2105976,80.2581205 27.672779,80.2298142 27.1349604,80.2581205 C26.9651229,80.2581205 26.8235917,80.201508 26.6820605,80.1165892 C26.398998,79.9184455 26.0593231,79.8052205 25.7479544,79.6636893 C25.4365857,79.4938519 25.2101358,79.2674019 25.0969108,78.8994207 C24.9836858,78.5314396 24.7855421,78.1917646 24.5307859,77.9087022 C24.3609484,77.7105585 24.077886,77.6256397 23.8231298,77.5124148 C23.6815986,77.4558023 23.5117611,77.3991898 23.3702299,77.3425773 C23.1437799,77.4841085 22.9456362,77.6822522 22.69088,77.8237834 C22.3795113,77.9936209 22.0398364,77.8237834 21.9266114,77.4841085 C21.8699989,77.2576586 21.8133864,77.0595149 21.7567739,76.8330649 C21.7567739,76.7764524 21.7284677,76.7198399 21.7284677,76.6632274 C21.9266114,75.9555713 21.643549,75.2479152 21.6152427,74.5402591 C21.5869365,73.9741342 21.4737115,73.4080093 21.417099,72.8418845 C21.417099,72.7003532 21.4454053,72.5871283 21.4454053,72.5022095 C21.3604865,72.2757596 21.303874,72.0776159 21.2189553,71.8794721 C20.9641991,71.0868973 20.8226679,70.2943225 20.5112992,69.5300539 C20.256543,68.9356227 20.0867055,68.2845791 19.8885618,67.6618417 C19.6338056,66.8975731 19.4073557,66.1616108 19.1242932,65.3973422 C18.9261495,64.8878298 18.6147808,64.4349299 18.2184934,63.98203 C17.7655935,63.4442113 17.5108373,62.7931677 17.2560811,62.1421241 C17.0296312,61.6043055 16.8031812,61.0664868 16.548425,60.5569744 C16.3502813,60.160687 16.2087501,59.7360933 16.2936688,59.2831934 C16.4068938,58.6604561 16.4352,58.0377187 16.6899562,57.4715938 C16.774875,57.2451438 16.8031812,56.9903876 16.8597937,56.7073252 C16.4068938,56.9620814 16.0955251,57.3017563 15.7558502,57.613125 C15.387869,57.9527999 15.0198878,58.2924749 14.6802129,58.6604561 C14.5103754,58.8585998 14.3405379,59.113356 14.2556192,59.3681122 C14.1707005,59.6228684 14.114088,59.8493183 13.9159443,60.0191558 C13.8593318,60.0757683 13.8027193,60.1323808 13.7744131,60.2172995 C13.6045756,60.7551181 13.2082882,61.1797118 12.953532,61.660918 C12.8686132,61.8307554 12.7553883,62.0288991 12.7553883,62.1987366 C12.727082,62.7931677 12.3874071,63.3026801 12.1892634,63.868805 C12.1326509,64.0103362 11.9911197,64.095255 11.9345072,64.2367862 C11.7646697,64.5764611 11.5948322,64.916136 11.3966885,65.2841172 C10.8305636,66.416367 10.6324199,67.6335355 10.519195,68.850704 C10.4625825,69.4451351 10.3493575,70.0395663 10.2361325,70.6339974 C10.2361325,70.6906099 10.2078263,70.7472224 10.2078263,70.8038349 C10.3493575,71.6247159 10.1512138,72.4172908 10.17952,73.2098656 C10.2078263,73.7476843 10.292745,74.2571967 10.3493575,74.7950153 C10.4342762,75.5309777 10.519195,76.2952463 10.6041137,77.0312086 C10.6324199,77.3708835 10.6607262,77.7105585 10.9720949,77.9653147 C11.1419323,78.1068459 11.1985448,78.3899083 11.2551573,78.588052 C11.340076,78.814502 11.453301,78.927727 11.7080572,78.927727 C11.9062009,78.927727 12.1043446,79.040952 12.2741821,79.1541769 C12.6704695,79.4372394 12.9818382,79.8052205 13.1233694,80.2864267 C13.1799819,80.4562642 13.3215131,80.5694891 13.4630444,80.6827141 C13.6045756,80.8242453 13.7744131,80.9374703 13.9159443,81.0506953 C13.9725568,81.0790015 14.0291693,81.1073078 14.0291693,81.1639203 C14.1990067,81.7866577 14.7934379,82.0414138 15.0765003,82.5509262 C15.1331128,82.6641512 15.2180315,82.74907 15.2463378,82.8906012 C15.3312565,83.3151948 15.2180315,83.4284198 14.7934379,83.4567261 C14.6519066,83.9662385 14.227313,83.9945447 13.8310255,83.9945447 C13.3498194,84.022851 12.8969195,84.1077697 12.4157133,84.022851 C11.9628134,83.9662385 11.5099135,84.0511572 11.0570136,84.0794634 C10.7173387,84.1077697 10.40597,84.1077697 10.0662951,83.9945447 C9.86815134,83.9379322 9.64170139,83.909626 9.44355768,83.909626 C9.0755765,83.8813197 8.76420781,83.7680948 8.45283913,83.569951 C8.39622664,83.5416448 8.3113079,83.4850323 8.3113079,83.4284198 C8.25469542,83.1170511 7.97163297,83.0604386 7.77348926,82.8906012 C7.54703931,82.6924575 7.3488956,82.4660075 7.15075189,82.2395576 C7.12244564,82.1829451 7.12244564,82.0980263 7.12244564,82.0414138 C7.0941394,81.8149639 7.03752691,81.6168202 7.00922067,81.3903702 C6.98091442,81.2771453 6.86768945,81.1639203 7.00922067,81.0506953 C7.03752691,81.0223891 7.00922067,80.9374703 7.00922067,80.9091641 C6.78277071,80.5411829 6.75446447,80.1448955 6.69785198,79.7486081 C6.69785198,79.6636893 6.61293325,79.5221581 6.55632076,79.4655456 C6.3298708,79.2957082 6.0751146,79.1541769 5.82035841,78.9843395 C5.82035841,78.9843395 5.79205216,78.9843395 5.79205216,79.0126457 C5.65052094,79.1258707 5.6222147,79.4089331 5.39576474,79.3240144 C5.16931479,79.2390957 4.97117108,79.1258707 4.8579461,78.8994207 C4.82963986,78.8428082 4.80133361,78.7861958 4.77302737,78.7578895 C4.51827117,78.5031333 4.46165868,78.1917646 4.43335244,77.8520897 C4.37673995,77.0029024 4.54657741,76.1820213 4.80133361,75.3894464 C4.82963986,75.2762215 4.88625234,75.1629965 4.91455859,75.0214653 C5.05608981,74.4270341 5.14100854,73.8042968 5.31084601,73.2381719 C5.59390845,72.3323721 5.6222147,71.3699597 5.84866465,70.4641599 C5.96188963,69.9829538 6.01850212,69.4734414 6.04680836,68.963929 C6.3298708,68.6525603 6.35817705,68.1996604 6.64123949,67.803373 Z M72.8778512,63.3592926 C72.8212387,63.4725176 72.7929324,63.5291301 72.7929324,63.5857426 C72.7363199,63.8404988 72.7363199,64.095255 72.6514012,64.3500112 C72.4815637,64.8029111 72.3683388,65.2841172 72.396645,65.7653234 C72.396645,65.8785484 72.3683388,66.0200796 72.3400325,66.1333046 C72.28342,66.6145107 72.0852763,67.0957169 72.1701951,67.6052293 C72.2268075,67.9449042 72.1701951,68.2845791 72.0852763,68.624254 C72.0569701,68.737479 72.0003576,68.8223978 72.0003576,68.9356227 C71.8588264,69.6715851 72.0286638,70.4358537 71.8022139,71.171816 C71.8022139,71.171816 71.8022139,71.2001223 71.8022139,71.2001223 C71.8022139,71.4548785 71.8022139,71.7379409 71.8022139,71.9926971 C71.8305201,72.672047 71.8588264,73.3230906 71.9154389,74.0024405 C71.9720513,74.6251778 72.3400325,75.1629965 72.5664825,75.7574276 C72.6514012,76.0121838 72.7929324,76.2952463 72.9344636,76.6349212 C73.0193824,76.0121838 73.1043011,75.4743652 73.1892198,74.9365465 C73.2741386,74.3704216 73.3307511,73.7759905 73.4156698,73.2098656 C73.4722823,72.672047 73.5855073,72.1625346 73.6138135,71.6247159 C73.670426,70.9453661 73.670426,70.2943225 73.670426,69.6149726 C73.670426,68.6808665 73.6421198,67.7184542 73.6138135,66.7843482 C73.6138135,66.7277357 73.5855073,66.6428169 73.557201,66.5862045 C73.3024448,66.0766921 73.1609136,65.5388734 73.1892198,64.9727485 C73.1609136,64.4632361 73.0759949,63.9537237 72.8778512,63.3592926 Z M111.968775,5.64286047 C112.138612,5.67116672 112.280143,5.50132925 112.336756,5.75608545 C112.336756,5.81269794 112.478287,5.84100418 112.563206,5.86931043 C112.676431,5.86931043 112.789656,5.86931043 112.902881,5.84100418 C113.921905,5.64286047 114.94093,5.33149179 115.931649,4.96351061 C115.875036,4.93520437 115.818424,4.87859188 115.761811,4.87859188 C115.676893,4.85028563 115.591974,4.85028563 115.507055,4.85028563 C115.39383,4.85028563 115.280605,4.85028563 115.16738,4.82197939 C114.176662,4.45399821 113.129331,4.42569197 112.082,4.56722319 C111.85555,4.59552944 111.657406,4.65214192 111.374343,4.70875441 C111.6291,4.99181686 111.798937,5.30318554 111.968775,5.64286047 Z" id="Shape"></path>
            </g>
        </g>
    </g>
</svg>