<?xml version="1.0" encoding="UTF-8"?>
<svg width="102px" height="100px" viewBox="0 0 102 100" version="1.1" xmlns="http://www.w3.org/2000/svg" xmlns:xlink="http://www.w3.org/1999/xlink">
    <!-- Generator: Sketch 52.5 (67469) - http://www.bohemiancoding.com/sketch -->
    <title>employees</title>
    <desc>Created with Sketch.</desc>
    <defs>
        <polygon id="path-1" points="0.0119521912 0.0173306773 101.992032 0.0173306773 101.992032 100 0.0119521912 100"></polygon>
    </defs>
    <g id="Dashboard" stroke="none" stroke-width="1" fill="none" fill-rule="evenodd">
        <g id="Catalog---Single-Product-(Full-Page,-Empty)" transform="translate(-615.000000, -718.000000)">
            <g id="employees" transform="translate(615.000000, 718.000000)">
                <g id="attach">
                    <path d="M75.6731076,29.1047809 C79.1370518,29.1047809 81.9553785,31.9229084 81.9553785,35.3870518 C81.9553785,38.850996 79.137251,41.6693227 75.6731076,41.6693227 C72.2089641,41.6693227 69.3908367,38.8511952 69.3908367,35.3870518 C69.3908367,31.9229084 72.2089641,29.1047809 75.6731076,29.1047809 Z M75.6731076,45.6533865 C81.3338645,45.6533865 85.9394422,41.048008 85.9394422,35.3870518 C85.9394422,29.7260956 81.3340637,25.1207171 75.6731076,25.1207171 C70.0121514,25.1207171 65.4067729,29.7262948 65.4067729,35.3870518 C65.4067729,41.0478088 70.0121514,45.6533865 75.6731076,45.6533865 Z" id="Fill-1" fill="#34AA44"></path>
                    <path d="M75.7430279,88.889243 C75.6932271,88.7677291 75.6314741,88.6521912 75.559761,88.5446215 C75.4880478,88.4350598 75.4043825,88.3334661 75.312749,88.2418327 C75.2211155,88.1501992 75.1195219,88.0665339 75.0099602,87.9948207 C74.9023904,87.9231076 74.7868526,87.8613546 74.6653386,87.8115538 C74.5458167,87.761753 74.4203187,87.7219124 74.2928287,87.698008 C74.0358566,87.6462151 73.7729084,87.6462151 73.5159363,87.698008 C73.3884462,87.7219124 73.2629482,87.761753 73.1434263,87.8115538 C73.0219124,87.8613546 72.9063745,87.9231076 72.7988048,87.9948207 C72.689243,88.0665339 72.5876494,88.1501992 72.4960159,88.2418327 C72.4043825,88.3334661 72.3207171,88.4350598 72.249004,88.5446215 C72.1772908,88.6521912 72.1155378,88.7677291 72.0657371,88.889243 C72.0159363,89.0087649 71.9760956,89.1342629 71.9521912,89.261753 C71.9262948,89.389243 71.9123506,89.5207171 71.9123506,89.6501992 C71.9123506,89.7796813 71.9262948,89.9111554 71.9521912,90.0386454 C71.9760956,90.1661355 72.0159363,90.2916335 72.0657371,90.4111554 C72.1155378,90.5326693 72.1772908,90.6482072 72.249004,90.7557769 C72.3207171,90.8653386 72.4043825,90.9669323 72.4960159,91.0585657 C72.5416335,91.1041833 72.5898406,91.1478088 72.6400398,91.1890438 C72.6908367,91.2304781 72.7438247,91.2697211 72.7988048,91.3055777 C72.9063745,91.3772908 73.0219124,91.4390438 73.1434263,91.4888446 C73.2629482,91.5386454 73.3884462,91.5784861 73.5159363,91.6023904 C73.6434263,91.6282869 73.7749004,91.6422311 73.9043825,91.6422311 C74.0338645,91.6422311 74.1653386,91.6282869 74.2928287,91.6023904 C74.4203187,91.5784861 74.5458167,91.5386454 74.6653386,91.4888446 C74.7868526,91.4390438 74.9023904,91.3772908 75.0099602,91.3055777 C75.0649402,91.2695219 75.1179283,91.2304781 75.1687251,91.1890438 C75.2191235,91.1478088 75.2671315,91.1041833 75.312749,91.0585657 C75.4043825,90.9669323 75.4880478,90.8653386 75.559761,90.7557769 C75.6314741,90.6482072 75.6932271,90.5326693 75.7430279,90.4111554 C75.7928287,90.2916335 75.8326693,90.1661355 75.8585657,90.0386454 C75.8844622,89.9111554 75.8964143,89.7796813 75.8964143,89.6501992 C75.8964143,89.5207171 75.8844622,89.389243 75.8585657,89.261753 C75.8326693,89.1342629 75.7928287,89.0087649 75.7430279,88.889243" id="Fill-2" fill="#34AA44"></path>
                    <g id="Group-6">
                        <mask id="mask-2" fill="white">
                            <use xlink:href="#path-1"></use>
                        </mask>
                        <g id="Clip-4"></g>
                        <path d="M40.7151394,11.5824701 C40.7649402,11.701992 40.8247012,11.8175299 40.8964143,11.9270916 C40.9701195,12.0346614 41.0537849,12.138247 41.1454183,12.2298805 C41.2370518,12.3215139 41.3386454,12.4051793 41.4482072,12.4768924 C41.5557769,12.5486056 41.6713147,12.6103586 41.7908367,12.6601594 C41.9123506,12.7099602 42.0378486,12.7478088 42.1653386,12.7737052 C42.2928287,12.7996016 42.4243028,12.8135458 42.5537849,12.8135458 C42.6832669,12.8135458 42.814741,12.7996016 42.9422311,12.7737052 C43.0697211,12.7478088 43.1952191,12.7099602 43.314741,12.6601594 C43.436255,12.6103586 43.5517928,12.5486056 43.6593625,12.4768924 C43.7689243,12.4051793 43.8705179,12.3215139 43.9621514,12.2298805 C44.0537849,12.138247 44.1374502,12.0346614 44.2091633,11.9270916 C44.2808765,11.8175299 44.3426295,11.701992 44.3924303,11.5824701 C44.4422311,11.4629482 44.4820717,11.3374502 44.5059761,11.2099602 C44.5318725,11.0804781 44.5458167,10.950996 44.5458167,10.8215139 C44.5458167,10.6900398 44.5318725,10.5605578 44.5059761,10.4310757 C44.4820717,10.3035857 44.4422311,10.1780876 44.3924303,10.0585657 C44.3426295,9.93904382 44.2808765,9.82350598 44.2091633,9.71394422 C44.1374502,9.6063745 44.0537849,9.50278884 43.9621514,9.41115538 C43.8705179,9.31952191 43.7689243,9.23585657 43.6593625,9.16414343 C43.5517928,9.09243028 43.436255,9.03067729 43.314741,8.98087649 C43.1952191,8.9310757 43.0697211,8.89322709 42.9422311,8.86733068 C42.685259,8.81553785 42.4223108,8.81553785 42.1653386,8.86733068 C42.0378486,8.89322709 41.9123506,8.9310757 41.7908367,8.98087649 C41.6713147,9.03067729 41.5557769,9.09243028 41.4482072,9.16414343 C41.3386454,9.23585657 41.2370518,9.31952191 41.1454183,9.41115538 C41.0537849,9.50278884 40.9701195,9.6063745 40.8964143,9.71394422 C40.8247012,9.82350598 40.7649402,9.93904382 40.7151394,10.0585657 C40.6653386,10.1780876 40.625498,10.3035857 40.6015936,10.4310757 C40.5756972,10.5605578 40.561753,10.6900398 40.561753,10.8215139 C40.561753,10.950996 40.5756972,11.0804781 40.6015936,11.2099602 C40.625498,11.3374502 40.6653386,11.4629482 40.7151394,11.5824701" id="Fill-3" fill="#34AA44" mask="url(#mask-2)"></path>
                        <path d="M98.0079681,68.9842629 L91.1719124,62.7177291 L87.1878486,59.6840637 C84.5920319,58.5984064 81.5055777,58.9760956 79.2424303,60.8533865 L70.2840637,68.2848606 C69.2988048,69.1023904 68.0123506,69.4326693 66.7549801,69.1910359 C65.4976096,68.9496016 64.4252988,68.1659363 63.8129482,67.0416335 L54.0181275,49.0561753 L54.0181275,49.0559761 L47.6880478,37.4324701 C46.3378486,34.9533865 43.8466135,33.4444223 41.0241036,33.3962151 C38.2023904,33.351992 35.6603586,34.7709163 34.2262948,37.2023904 L14.8041833,70.1334661 L14.8041833,20.2846614 C14.8041833,16.1645418 18.1561753,12.8125498 22.2762948,12.8125498 L34.5854582,12.8125498 C35.6856574,12.8125498 36.57749,11.9207171 36.57749,10.8205179 C36.57749,9.72031873 35.6856574,8.82848606 34.5854582,8.82848606 L22.2762948,8.82848606 C15.9593625,8.82848606 10.8201195,13.9677291 10.8201195,20.2846614 L10.8201195,87.1758964 C6.99681275,86.8517928 3.98406375,83.6386454 3.98406375,79.7328685 L3.98406375,17.2316733 C3.98406375,9.93625498 9.91932271,4.00119522 17.2145418,4.00119522 L79.7155378,4.00119522 C82.9047809,4.00119522 85.6322709,6.01015936 86.7025896,8.82848606 L50.5217131,8.82848606 C49.4215139,8.82848606 48.5296813,9.72031873 48.5296813,10.8205179 C48.5296813,11.9207171 49.4215139,12.8125498 50.5217131,12.8125498 L87.1876494,12.8125498 L91.1717131,12.8416335 C94.9952191,13.1657371 98.0079681,16.3788845 98.0079681,20.2846614 L98.0079681,68.9842629 Z M98.0079681,88.5442231 C98.0079681,92.6643426 94.6559761,96.0163347 90.5358566,96.0163347 L22.276494,96.0163347 C19.087251,96.0163347 16.359761,94.0073705 15.2894422,91.1890438 C14.9768924,90.3663347 14.8043825,89.4752988 14.8043825,88.5442231 L14.8043825,77.9760956 L37.6579681,39.2262948 C38.3537849,38.0466135 39.5946215,37.3577689 40.9559761,37.3796813 C42.325498,37.4031873 43.5340637,38.1350598 44.1890438,39.3380478 L68.3318725,83.6697211 C68.6932271,84.3334661 69.3770916,84.7093625 70.0830677,84.7093625 C70.4049801,84.7093625 70.7314741,84.6310757 71.0340637,84.4663347 C72.0001992,83.9400398 72.3569721,82.7302789 71.8308765,81.7641434 L67.1894422,73.2412351 C69.2272908,73.335259 71.2316733,72.6752988 72.8278884,71.3511952 L81.786255,63.9197211 C83.2229084,62.7278884 85.3442231,62.7802789 86.7203187,64.0418327 L98.0079681,74.3888446 L98.0079681,88.5442231 Z M90.8621514,8.83685259 C89.6677291,3.787251 85.1250996,0.0173306773 79.7155378,0.0173306773 L17.2145418,0.0173306773 C7.72250996,0.0171314741 0,7.73964143 0,17.2316733 L0,79.7326693 C0,85.9400398 4.96354582,91.0065737 11.1298805,91.1804781 C12.3243028,96.2300797 16.8669323,100 22.276494,100 L90.5358566,100 C96.8527888,100 101.992032,94.860757 101.992032,88.5438247 L101.992032,20.2846614 C101.992032,14.0772908 97.0284861,9.01075697 90.8621514,8.83685259 Z" id="Fill-5" fill="#34AA44" mask="url(#mask-2)"></path>
                    </g>
                </g>
            </g>
        </g>
    </g>
</svg>