<?xml version="1.0" encoding="UTF-8"?>
<svg width="15px" height="15px" viewBox="0 0 15 15" version="1.1" xmlns="http://www.w3.org/2000/svg" xmlns:xlink="http://www.w3.org/1999/xlink">
    <!-- Generator: Sketch 52.5 (67469) - http://www.bohemiancoding.com/sketch -->
    <title>Path</title>
    <desc>Created with Sketch.</desc>
    <g id="Dashboard" stroke="none" stroke-width="1" fill="none" fill-rule="evenodd">
        <g id="Catalog---Single-Product,-Reorder-Options-Modal" transform="translate(-698.000000, -289.000000)" fill="#FFFFFF">
            <g id="Group-4" transform="translate(691.000000, 281.000000)">
                <path d="M21.8639155,15.1849402 L19.4119918,12.8772456 C19.2863371,12.7589151 19.1023227,12.7266298 18.943826,12.7951262 C18.7853585,12.8635932 18.6827605,13.0196876 18.6827605,13.1923347 L18.6827605,14.2019676 L15.7981203,14.2019676 L15.7981203,11.3173274 L16.8077532,11.3173274 C16.980371,11.3173274 17.1364947,11.2147294 17.2049617,11.0562619 C17.2734288,10.8977945 17.2411728,10.7137801 17.1228423,10.588096 L14.8151184,8.13614311 C14.7333505,8.04927754 14.6193266,8 14.5000293,8 C14.380732,8 14.2667081,8.04927754 14.1849402,8.13614311 L11.8772456,10.588096 C11.7589151,10.7137801 11.7266591,10.8977945 11.7951262,11.0562619 C11.8635932,11.2147294 12.0196876,11.3173274 12.1923347,11.3173274 L13.2019676,11.3173274 L13.2019676,14.2019676 L10.3173274,14.2019676 L10.3173274,13.1923347 C10.3173274,13.0197169 10.2147294,12.8635932 10.0562619,12.7951262 C9.89776523,12.7266591 9.71378013,12.7589151 9.58809605,12.8772456 L7.13614311,15.1849402 C7.04927754,15.2667081 7,15.380732 7,15.5000293 C7,15.6193266 7.04927754,15.7333505 7.13614311,15.8151184 L9.58806675,18.122813 C9.71375083,18.2411435 9.89773593,18.2734288 10.0562326,18.2049324 C10.2147001,18.1364654 10.3172981,17.980371 10.3172981,17.8077239 L10.3172981,16.798091 L13.2019383,16.798091 L13.2019383,19.6827312 L12.1923054,19.6827312 C12.0196876,19.6827312 11.8635639,19.7853292 11.7950969,19.9437967 C11.7266298,20.1022641 11.7588858,20.2862785 11.8772163,20.4119625 L14.1849109,22.8638862 C14.2666495,22.9507811 14.3807027,23.0000293 14.5,23.0000293 C14.6192973,23.0000293 14.7333212,22.9507518 14.8150891,22.8638862 L17.1227837,20.4119625 C17.2411142,20.2862785 17.2733702,20.1022641 17.2049031,19.9437967 C17.1364361,19.7853292 16.9803417,19.6827312 16.8076946,19.6827312 L15.7980617,19.6827312 L15.7980617,16.798091 L18.6827019,16.798091 L18.6827019,17.8077239 C18.6827019,17.9803417 18.7852999,18.1364654 18.9437674,18.2049324 C19.1022641,18.2733995 19.2862785,18.2411435 19.4119332,18.122813 L21.8638569,15.8151184 C21.9507518,15.7333798 22,15.6193266 22,15.5000293 C22,15.380732 21.9507811,15.2667081 21.8639155,15.1849402 Z" id="Path"></path>
            </g>
        </g>
    </g>
</svg>