<?xml version="1.0" encoding="UTF-8"?>
<svg width="20px" height="20px" viewBox="0 0 20 20" version="1.1" xmlns="http://www.w3.org/2000/svg" xmlns:xlink="http://www.w3.org/1999/xlink">
    <!-- Generator: Sketch 52.5 (67469) - http://www.bohemiancoding.com/sketch -->
    <title>Path</title>
    <desc>Created with Sketch.</desc>
    <g id="Dashboard" stroke="none" stroke-width="1" fill="none" fill-rule="evenodd">
        <g id="Catalog---Single-Product,-Reorder-Options-Modal" transform="translate(-500.000000, -339.000000)" fill="#50E3C2">
            <g id="Group-3" transform="translate(500.000000, 338.000000)">
                <g id="move" transform="translate(0.000000, 1.000000)">
                    <path d="M19.8184766,9.57988281 L16.5492578,6.50296875 C16.3817187,6.34519531 16.1363672,6.30214844 15.9250391,6.39347656 C15.71375,6.48476562 15.5769531,6.69289062 15.5769531,6.92308594 L15.5769531,8.26925781 L11.7307812,8.26925781 L11.7307812,4.42308594 L13.0769531,4.42308594 C13.3071094,4.42308594 13.5152734,4.28628906 13.6065625,4.075 C13.6978516,3.86371094 13.6548437,3.61835937 13.4970703,3.45078125 L10.4201172,0.181523437 C10.3110937,0.065703125 10.1590625,0 10,0 C9.8409375,0 9.68890625,0.065703125 9.57988281,0.181523437 L6.50296875,3.45078125 C6.34519531,3.61835937 6.3021875,3.86371094 6.39347656,4.075 C6.48476562,4.28628906 6.69289062,4.42308594 6.92308594,4.42308594 L8.26925781,4.42308594 L8.26925781,8.26925781 L4.42308594,8.26925781 L4.42308594,6.92308594 C4.42308594,6.69292969 4.28628906,6.48476562 4.075,6.39347656 C3.86367187,6.3021875 3.61835937,6.34519531 3.45078125,6.50296875 L0.181523437,9.57988281 C0.065703125,9.68890625 0,9.8409375 0,10 C0,10.1590625 0.065703125,10.3110937 0.181523437,10.4201172 L3.45074219,13.4970312 C3.61832031,13.6548047 3.86363281,13.6978516 4.07496094,13.6065234 C4.28625,13.5152344 4.42304687,13.3071094 4.42304687,13.0769141 L4.42304687,11.7307422 L8.26921875,11.7307422 L8.26921875,15.5769141 L6.92304687,15.5769141 C6.69289062,15.5769141 6.48472656,15.7137109 6.3934375,15.925 C6.30214844,16.1362891 6.34515625,16.3816406 6.50292969,16.5492187 L9.57984375,19.8184375 C9.68882812,19.9342969 9.84089844,19.9999609 9.99996094,19.9999609 C10.1590234,19.9999609 10.3110547,19.9342578 10.4200781,19.8184375 L13.4969922,16.5492187 C13.6547656,16.3816406 13.6977734,16.1362891 13.6064844,15.925 C13.5151953,15.7137109 13.3070703,15.5769141 13.076875,15.5769141 L11.7307031,15.5769141 L11.7307031,11.7307422 L15.576875,11.7307422 L15.576875,13.0769141 C15.576875,13.3070703 15.7136719,13.5152344 15.9249609,13.6065234 C16.1362891,13.6978125 16.3816406,13.6548047 16.5491797,13.4970312 L19.8183984,10.4201172 C19.9342578,10.3111328 19.9999219,10.1590625 19.9999219,10 C19.9999219,9.8409375 19.9342969,9.68890625 19.8184766,9.57988281 Z" id="Path"></path>
                </g>
            </g>
        </g>
    </g>
</svg>