
<svg width="100px" height="25px" viewBox="0 0 100 25" version="1.1" xmlns="http://www.w3.org/2000/svg" xmlns:xlink="http://www.w3.org/1999/xlink">
    <!-- Generator: Sketch 51.3 (57544) - http://www.bohemiancoding.com/sketch -->
    <desc>Created with Sketch.</desc>
    <defs></defs>
    <g id="Dashboard" stroke="none" stroke-width="1" fill="none" fill-rule="evenodd">
        <g id="Settings" transform="translate(-713.000000, -2137.000000)">
            <g id="Group-12" transform="translate(678.000000, 1900.000000)">
                <g id="Group-2" transform="translate(35.000000, 237.000000)">
                    <g id="Toggle-Button/Inactive/With-Value-+-Description">
                        <g id="Group">
                            <g id="PayPal">
                                <path d="M37.2669355,5.44274194 L31.7516129,5.44274194 C31.3741935,5.44274194 31.0532258,5.71693548 30.9943548,6.08951613 L28.7637097,20.2322581 C28.7193548,20.5112903 28.9354839,20.7629032 29.2185484,20.7629032 L31.8516129,20.7629032 C32.2290323,20.7629032 32.55,20.4887097 32.608871,20.1153226 L33.2104839,16.3008065 C33.2685484,15.9274194 33.5903226,15.6532258 33.9669355,15.6532258 L35.7129032,15.6532258 C39.3459677,15.6532258 41.4427419,13.8951613 41.9903226,10.4112903 C42.2370968,8.88709677 42.0008065,7.68951613 41.2870968,6.85080645 C40.5032258,5.92983871 39.1129032,5.44274194 37.2669355,5.44274194 Z M37.9032258,10.6080645 C37.6016129,12.5870968 36.0895161,12.5870968 34.6274194,12.5870968 L33.7951613,12.5870968 L34.3790323,8.89112903 C34.4137097,8.66774194 34.6072581,8.50322581 34.8330645,8.50322581 L35.2145161,8.50322581 C36.2104839,8.50322581 37.15,8.50322581 37.6354839,9.07096774 C37.925,9.40967742 38.0137097,9.91290323 37.9032258,10.6080645 Z" id="Shape" fill="#253B80" fill-rule="nonzero"></path>
                                <path d="M53.7532258,10.5443548 L51.1120968,10.5443548 C50.8870968,10.5443548 50.6927419,10.708871 50.6580645,10.9322581 L50.541129,11.6709677 L50.3564516,11.4032258 C49.7846774,10.5733871 48.5096774,10.2959677 47.2370968,10.2959677 C44.3185484,10.2959677 41.8258065,12.5064516 41.3403226,15.6072581 C41.0879032,17.1540323 41.4467742,18.6330645 42.3241935,19.6645161 C43.1290323,20.6129032 44.2806452,21.0080645 45.6508065,21.0080645 C48.0024194,21.0080645 49.3064516,19.4959677 49.3064516,19.4959677 L49.1887097,20.2298387 C49.1443548,20.5104839 49.3604839,20.7620968 49.6419355,20.7620968 L52.0209677,20.7620968 C52.3991935,20.7620968 52.7185484,20.4879032 52.7782258,20.1145161 L54.2056452,11.075 C54.2508065,10.7967742 54.0354839,10.5443548 53.7532258,10.5443548 Z M50.0717742,15.6846774 C49.8169355,17.1935484 48.6193548,18.2064516 47.0919355,18.2064516 C46.325,18.2064516 45.7120968,17.9604839 45.3185484,17.4943548 C44.9282258,17.0314516 44.7798387,16.3725806 44.9040323,15.6387097 C45.1419355,14.1427419 46.3596774,13.0967742 47.8637097,13.0967742 C48.6137097,13.0967742 49.2233871,13.3459677 49.625,13.816129 C50.0274194,14.291129 50.1870968,14.9540323 50.0717742,15.6846774 Z" id="Shape" fill="#253B80" fill-rule="nonzero"></path>
                                <path d="M67.8193548,10.5443548 L65.1653226,10.5443548 C64.9120968,10.5443548 64.6741935,10.6701613 64.5306452,10.8806452 L60.8701613,16.2725806 L59.3185484,11.091129 C59.2209677,10.7669355 58.9217742,10.5443548 58.5830645,10.5443548 L55.975,10.5443548 C55.6580645,10.5443548 55.4379032,10.8540323 55.5387097,11.1524194 L58.4620968,19.7314516 L55.7137097,23.6112903 C55.4975806,23.9169355 55.7153226,24.3370968 56.0887097,24.3370968 L58.7395161,24.3370968 C58.991129,24.3370968 59.2266129,24.2145161 59.3693548,24.0080645 L68.1967742,11.266129 C68.4080645,10.9612903 68.191129,10.5443548 67.8193548,10.5443548 Z" id="Path" fill="#253B80"></path>
                                <path d="M76.6064516,5.44274194 L71.0903226,5.44274194 C70.7137097,5.44274194 70.3927419,5.71693548 70.333871,6.08951613 L68.1032258,20.2322581 C68.058871,20.5112903 68.275,20.7629032 68.5564516,20.7629032 L71.3870968,20.7629032 C71.65,20.7629032 71.875,20.5709677 71.916129,20.3096774 L72.5491935,16.3008065 C72.6072581,15.9274194 72.9290323,15.6532258 73.3056452,15.6532258 L75.0508065,15.6532258 C78.6846774,15.6532258 80.7806452,13.8951613 81.3290323,10.4112903 C81.5766129,8.88709677 81.3387097,7.68951613 80.625,6.85080645 C79.8419355,5.92983871 78.4524194,5.44274194 76.6064516,5.44274194 Z M77.2427419,10.6080645 C76.9419355,12.5870968 75.4298387,12.5870968 73.9669355,12.5870968 L73.1354839,12.5870968 L73.7201613,8.89112903 C73.7548387,8.66774194 73.9467742,8.50322581 74.1733871,8.50322581 L74.5548387,8.50322581 C75.55,8.50322581 76.4903226,8.50322581 76.9758065,9.07096774 C77.2653226,9.40967742 77.3532258,9.91290323 77.2427419,10.6080645 Z" id="Shape" fill="#179BD7" fill-rule="nonzero"></path>
                                <path d="M93.0919355,10.5443548 L90.4524194,10.5443548 C90.2258065,10.5443548 90.0330645,10.708871 89.9991935,10.9322581 L89.8822581,11.6709677 L89.6967742,11.4032258 C89.125,10.5733871 87.8508065,10.2959677 86.5782258,10.2959677 C83.6596774,10.2959677 81.1677419,12.5064516 80.6822581,15.6072581 C80.4306452,17.1540323 80.7879032,18.6330645 81.6653226,19.6645161 C82.4717742,20.6129032 83.6217742,21.0080645 84.9919355,21.0080645 C87.3435484,21.0080645 88.6475806,19.4959677 88.6475806,19.4959677 L88.5298387,20.2298387 C88.4854839,20.5104839 88.7016129,20.7620968 88.9846774,20.7620968 L91.3629032,20.7620968 C91.7395161,20.7620968 92.0604839,20.4879032 92.1193548,20.1145161 L93.5475806,11.075 C93.591129,10.7967742 93.375,10.5443548 93.0919355,10.5443548 Z M89.4104839,15.6846774 C89.1572581,17.1935484 87.9580645,18.2064516 86.4306452,18.2064516 C85.6653226,18.2064516 85.0508065,17.9604839 84.6572581,17.4943548 C84.2669355,17.0314516 84.1201613,16.3725806 84.2427419,15.6387097 C84.4822581,14.1427419 85.6983871,13.0967742 87.2024194,13.0967742 C87.9524194,13.0967742 88.5620968,13.3459677 88.9637097,13.816129 C89.3677419,14.291129 89.5274194,14.9540323 89.4104839,15.6846774 Z" id="Shape" fill="#179BD7" fill-rule="nonzero"></path>
                                <path d="M96.2056452,5.83064516 L93.9419355,20.2322581 C93.8975806,20.5112903 94.1137097,20.7629032 94.3951613,20.7629032 L96.6709677,20.7629032 C97.0491935,20.7629032 97.3701613,20.4887097 97.4282258,20.1153226 L99.6604839,5.9733871 C99.7048387,5.69435484 99.4887097,5.44193548 99.2072581,5.44193548 L96.658871,5.44193548 C96.433871,5.44274194 96.2403226,5.60725806 96.2056452,5.83064516 Z" id="Path" fill="#179BD7"></path>
                                <path d="M5.85967742,23.5112903 L6.28145161,20.8322581 L5.34193548,20.8104839 L0.855645161,20.8104839 L3.9733871,1.04193548 C3.98306452,0.982258065 4.01451613,0.926612903 4.06048387,0.887096774 C4.10645161,0.847580645 4.16532258,0.825806452 4.2266129,0.825806452 L11.791129,0.825806452 C14.3024194,0.825806452 16.0354839,1.3483871 16.9403226,2.37983871 C17.3645161,2.86370968 17.6346774,3.36935484 17.7653226,3.92580645 C17.9024194,4.50967742 17.9048387,5.20725806 17.7709677,6.05806452 L17.7612903,6.12016129 L17.7612903,6.66532258 L18.1854839,6.90564516 C18.5427419,7.09516129 18.8266129,7.31209677 19.0443548,7.56048387 C19.4072581,7.97419355 19.6419355,8.5 19.741129,9.1233871 C19.8435484,9.76451613 19.8096774,10.5274194 19.6419355,11.391129 C19.4483871,12.3846774 19.1354839,13.25 18.7129032,13.9580645 C18.3241935,14.6104839 17.8290323,15.1516129 17.241129,15.5709677 C16.6798387,15.9693548 16.0129032,16.2717742 15.258871,16.4653226 C14.5282258,16.6556452 13.6951613,16.7516129 12.7814516,16.7516129 L12.1927419,16.7516129 C11.7717742,16.7516129 11.3629032,16.9032258 11.0419355,17.175 C10.7201613,17.4524194 10.5072581,17.8314516 10.4419355,18.2459677 L10.3975806,18.4870968 L9.65241935,23.208871 L9.61854839,23.3822581 C9.60967742,23.4370968 9.59435484,23.4645161 9.57177419,23.4830645 C9.5516129,23.5 9.52258065,23.5112903 9.49435484,23.5112903 L5.85967742,23.5112903 Z" id="Path" fill="#253B80"></path>
                                <path d="M18.5870968,6.18306452 C18.5645161,6.32741935 18.5387097,6.475 18.5096774,6.6266129 C17.5120968,11.7483871 14.0991935,13.5177419 9.74032258,13.5177419 L7.52096774,13.5177419 C6.98790323,13.5177419 6.53870968,13.9048387 6.45564516,14.4306452 L5.31935484,21.6370968 L4.99758065,23.6798387 C4.94354839,24.025 5.20967742,24.3362903 5.55806452,24.3362903 L9.49435484,24.3362903 C9.96048387,24.3362903 10.3564516,23.9975806 10.4298387,23.5379032 L10.4685484,23.3379032 L11.2096774,18.6346774 L11.2572581,18.3766129 C11.3298387,17.9153226 11.7266129,17.5766129 12.1927419,17.5766129 L12.7814516,17.5766129 C16.5951613,17.5766129 19.5806452,16.0282258 20.4532258,11.5475806 C20.8177419,9.67580645 20.6290323,8.11290323 19.6645161,7.01370968 C19.3725806,6.68225806 19.0104839,6.40725806 18.5870968,6.18306452 Z" id="Path" fill="#179BD7"></path>
                                <path d="M17.5435484,5.76693548 C17.391129,5.72258065 17.233871,5.68225806 17.0725806,5.64596774 C16.9104839,5.61048387 16.7443548,5.57903226 16.5733871,5.5516129 C15.975,5.45483871 15.3193548,5.40887097 14.6169355,5.40887097 L8.68790323,5.40887097 C8.54193548,5.40887097 8.40322581,5.44193548 8.27903226,5.5016129 C8.00564516,5.63306452 7.80241935,5.89193548 7.75322581,6.20887097 L6.49193548,14.1975806 L6.45564516,14.4306452 C6.53870968,13.9048387 6.98790323,13.5177419 7.52096774,13.5177419 L9.74032258,13.5177419 C14.0991935,13.5177419 17.5120968,11.7475806 18.5096774,6.6266129 C18.5395161,6.475 18.5645161,6.32741935 18.5870968,6.18306452 C18.3346774,6.04919355 18.0612903,5.93467742 17.7669355,5.83709677 C17.6943548,5.81290323 17.6193548,5.78951613 17.5435484,5.76693548 Z" id="Path" fill="#222D65"></path>
                                <path d="M7.75322581,6.20887097 C7.80241935,5.89193548 8.00564516,5.63306452 8.27903226,5.50241935 C8.40403226,5.44274194 8.54193548,5.40967742 8.68790323,5.40967742 L14.6169355,5.40967742 C15.3193548,5.40967742 15.975,5.45564516 16.5733871,5.55241935 C16.7443548,5.57983871 16.9104839,5.61129032 17.0725806,5.64677419 C17.233871,5.68306452 17.391129,5.7233871 17.5435484,5.76774194 C17.6193548,5.79032258 17.6943548,5.81370968 17.7677419,5.83709677 C18.0620968,5.93467742 18.3354839,6.05 18.5879032,6.18306452 C18.8846774,4.29032258 18.5854839,3.0016129 17.5620968,1.83467742 C16.433871,0.55 14.3975806,0 11.7919355,0 L4.22741935,0 C3.69516129,0 3.24112903,0.387096774 3.15887097,0.913709677 L0.00806451613,20.8854839 C-0.0540322581,21.2806452 0.250806452,21.6370968 0.649193548,21.6370968 L5.31935484,21.6370968 L6.49193548,14.1975806 L7.75322581,6.20887097 Z" id="Path" fill="#253B80"></path>
                            </g>
                        </g>
                    </g>
                </g>
            </g>
        </g>
    </g>
</svg>