
<svg width="60px" height="25px" viewBox="0 0 60 25" version="1.1" xmlns="http://www.w3.org/2000/svg" xmlns:xlink="http://www.w3.org/1999/xlink">
    <!-- Generator: Sketch 51.3 (57544) - http://www.bohemiancoding.com/sketch -->
    <desc>Created with Sketch.</desc>
    <defs></defs>
    <g id="Dashboard" stroke="none" stroke-width="1" fill="none" fill-rule="evenodd">
        <g id="Settings" transform="translate(-713.000000, -2032.000000)" fill="#6772E5">
            <g id="Group-12" transform="translate(678.000000, 1900.000000)">
                <g id="Group-2" transform="translate(0.000000, 132.000000)">
                    <g id="Toggle-Button/Inactive/With-Value-+-Description" transform="translate(35.000000, 0.000000)">
                        <g id="Group">
                            <g id="Stripe-logo---blue">
                                <path d="M60,12.9 C60,8.63333333 57.9333333,5.26666667 53.9833333,5.26666667 C50.0166667,5.26666667 47.6166667,8.63333333 47.6166667,12.8666667 C47.6166667,17.8833333 50.45,20.4166667 54.5166667,20.4166667 C56.5,20.4166667 58,19.9666667 59.1333333,19.3333333 L59.1333333,16 C58,16.5666667 56.7,16.9166667 55.05,16.9166667 C53.4333333,16.9166667 52,16.35 51.8166667,14.3833333 L59.9666667,14.3833333 C59.9666667,14.1666667 60,13.3 60,12.9 Z M51.7666667,11.3166667 C51.7666667,9.43333333 52.9166667,8.65 53.9666667,8.65 C54.9833333,8.65 56.0666667,9.43333333 56.0666667,11.3166667 L51.7666667,11.3166667 Z" id="Shape"></path>
                                <path d="M41.1833333,5.26666667 C39.55,5.26666667 38.5,6.03333333 37.9166667,6.56666667 L37.7,5.53333333 L34.0333333,5.53333333 L34.0333333,24.9666667 L38.2,24.0833333 L38.2166667,19.3666667 C38.8166667,19.8 39.7,20.4166667 41.1666667,20.4166667 C44.15,20.4166667 46.8666667,18.0166667 46.8666667,12.7333333 C46.85,7.9 44.1,5.26666667 41.1833333,5.26666667 Z M40.1833333,16.75 C39.2,16.75 38.6166667,16.4 38.2166667,15.9666667 L38.2,9.78333333 C38.6333333,9.3 39.2333333,8.96666667 40.1833333,8.96666667 C41.7,8.96666667 42.75,10.6666667 42.75,12.85 C42.75,15.0833333 41.7166667,16.75 40.1833333,16.75 Z" id="Shape"></path>
                                <polygon id="Path" points="28.3 4.28333333 32.4833333 3.38333333 32.4833333 0 28.3 0.883333333"></polygon>
                                <rect id="Rectangle" x="28.3" y="5.55" width="4.18333333" height="14.5833333"></rect>
                                <path d="M23.8166667,6.78333333 L23.55,5.55 L19.95,5.55 L19.95,20.1333333 L24.1166667,20.1333333 L24.1166667,10.25 C25.1,8.96666667 26.7666667,9.2 27.2833333,9.38333333 L27.2833333,5.55 C26.75,5.35 24.8,4.98333333 23.8166667,6.78333333 Z" id="Path"></path>
                                <path d="M15.4833333,1.93333333 L11.4166667,2.8 L11.4,16.15 C11.4,18.6166667 13.25,20.4333333 15.7166667,20.4333333 C17.0833333,20.4333333 18.0833333,20.1833333 18.6333333,19.8833333 L18.6333333,16.5 C18.1,16.7166667 15.4666667,17.4833333 15.4666667,15.0166667 L15.4666667,9.1 L18.6333333,9.1 L18.6333333,5.55 L15.4666667,5.55 L15.4833333,1.93333333 Z" id="Path"></path>
                                <path d="M4.21666667,9.78333333 C4.21666667,9.13333333 4.75,8.88333333 5.63333333,8.88333333 C6.9,8.88333333 8.5,9.26666667 9.76666667,9.95 L9.76666667,6.03333333 C8.38333333,5.48333333 7.01666667,5.26666667 5.63333333,5.26666667 C2.25,5.26666667 0,7.03333333 0,9.98333333 C0,14.5833333 6.33333333,13.85 6.33333333,15.8333333 C6.33333333,16.6 5.66666667,16.85 4.73333333,16.85 C3.35,16.85 1.58333333,16.2833333 0.183333333,15.5166667 L0.183333333,19.4833333 C1.73333333,20.15 3.3,20.4333333 4.73333333,20.4333333 C8.2,20.4333333 10.5833333,18.7166667 10.5833333,15.7333333 C10.5666667,10.7666667 4.21666667,11.65 4.21666667,9.78333333 Z" id="Path"></path>
                            </g>
                        </g>
                    </g>
                </g>
            </g>
        </g>
    </g>
</svg>